<svg width="95" height="57" viewBox="0 0 95 57" fill="none" xmlns="http://www.w3.org/2000/svg">
<path d="M52.6493 51.9716V5.42615H68.3766C72.0129 5.42615 74.9978 6.04736 77.3311 7.28978C79.6644 8.51706 81.3917 10.2065 82.5129 12.358C83.6341 14.5095 84.1948 16.9565 84.1948 19.6989C84.1948 22.4413 83.6341 24.8731 82.5129 26.9943C81.3917 29.1155 79.672 30.7822 77.3538 31.9943C75.0357 33.1913 72.0735 33.7898 68.4675 33.7898H55.7402V28.6989H68.2857C70.7705 28.6989 72.7705 28.3352 74.2857 27.608C75.816 26.8807 76.922 25.8504 77.6038 24.5171C78.3008 23.1686 78.6493 21.5625 78.6493 19.6989C78.6493 17.8352 78.3008 16.2065 77.6038 14.8125C76.9069 13.4186 75.7932 12.3428 74.2629 11.5852C72.7326 10.8125 70.7099 10.4261 68.1947 10.4261H58.2857V51.9716H52.6493ZM74.5584 31.0625L86.0129 51.9716H79.4675L68.1947 31.0625H74.5584Z" fill="white"/>
<path d="M5.27429 51.9716V5.42615H10.9107V26.1534H35.7288V5.42615H41.3652V51.9716H35.7288V31.1534H10.9107V51.9716H5.27429Z" fill="white"/>
<path fill-rule="evenodd" clip-rule="evenodd" d="M47.6493 56.9716V0.426147H68.3766C72.535 0.426147 76.3946 1.1298 79.6691 2.87004C82.8166 4.52794 85.316 6.91756 86.947 10.0473C88.4861 13.0007 89.1948 16.2579 89.1948 19.6989C89.1948 23.1383 88.4865 26.3925 86.9334 29.3309C85.7836 31.5063 84.2104 33.3181 82.2911 34.771L94.4532 56.9716H76.4828L66.6804 38.7898H63.2857V56.9716H47.6493ZM58.2857 33.7898H68.4675C68.8707 33.7898 69.2659 33.7823 69.653 33.7673L79.4675 51.9716H86.0129L75.4984 32.7785C76.157 32.5544 76.7755 32.293 77.3538 31.9943C78.2826 31.5087 79.1153 30.9501 79.8519 30.3185C80.9539 29.3738 81.8409 28.2657 82.5129 26.9943C83.6341 24.8731 84.1948 22.4413 84.1948 19.6989C84.1948 16.9565 83.6341 14.5095 82.5129 12.358C81.3917 10.2064 79.6644 8.51706 77.3311 7.28978C74.9978 6.04736 72.0129 5.42615 68.3766 5.42615H52.6493V51.9716H58.2857V33.7898ZM74.2629 11.5852C75.7932 12.3428 76.9069 13.4186 77.6038 14.8125C78.3008 16.2064 78.6493 17.8352 78.6493 19.6989C78.6493 21.5625 78.3008 23.1686 77.6038 24.5171C77.312 25.0877 76.9425 25.6029 76.4953 26.0625C75.9607 26.6119 75.315 27.082 74.5584 27.4728C74.469 27.519 74.3781 27.564 74.2857 27.608C72.7705 28.3352 70.7705 28.6989 68.2857 28.6989H58.2857V10.4261H68.1947C70.7099 10.4261 72.7326 10.8125 74.2629 11.5852ZM63.2857 15.4261V23.6989H68.2857C70.3506 23.6989 71.5265 23.3862 72.122 23.1003L72.1307 23.0962L72.1395 23.092C72.8129 22.772 73.0364 22.4669 73.1521 22.2406L73.1571 22.2309L73.162 22.2213C73.4179 21.7262 73.6493 20.9428 73.6493 19.6989C73.6493 18.4609 73.4199 17.625 73.1317 17.0486C72.9686 16.7225 72.698 16.3897 72.0446 16.0662L72.0269 16.0574L72.0092 16.0485C71.4273 15.7546 70.2649 15.4261 68.1947 15.4261H63.2857Z" fill="black"/>
<path fill-rule="evenodd" clip-rule="evenodd" d="M0.274292 56.9716V0.426147H15.9107V21.1534H30.7288V0.426147H46.3652V56.9716H30.7288V36.1534H15.9107V56.9716H0.274292ZM10.9107 31.1534H35.7288V51.9716H41.3652V5.42615H35.7288V26.1534H10.9107V5.42615H5.27429V51.9716H10.9107V31.1534Z" fill="black"/>
<path d="M55.2576 53.3582L52.7215 53.3582L52.7215 43.2644L55.2576 43.2644L55.2576 53.3582ZM59.9241 46.2063L59.9241 49.1989L41.3597 49.1989C40.5143 49.1989 39.8803 49.3215 39.4576 49.5667C39.0433 49.8203 38.7644 50.1415 38.6207 50.5304C38.4854 50.9277 38.4178 51.3462 38.4178 51.7858C38.4178 52.1155 38.4347 52.386 38.4685 52.5973C38.5108 52.8087 38.5446 52.9778 38.5699 53.1046L35.8816 53.7132C35.8056 53.5103 35.7295 53.2271 35.6534 52.8636C35.5689 52.5001 35.5266 52.0394 35.5266 51.4814C35.5266 50.6361 35.7083 49.8076 36.0719 48.996C36.4354 48.1929 36.9891 47.5251 37.733 46.9925C38.4769 46.4684 39.4153 46.2063 40.5481 46.2063L59.9241 46.2063Z" fill="#BAA7FF"/>
<path d="M35.3745 32.2704C35.3745 30.3936 35.7887 28.7747 36.6172 27.4137C37.4541 26.0611 38.6207 25.017 40.117 24.2816C41.6218 23.5545 43.3717 23.191 45.3668 23.191C47.3619 23.191 49.1203 23.5546 50.6419 24.2816C52.1721 25.017 53.364 26.04 54.2179 27.3503C55.0802 28.6691 55.5113 30.2077 55.5113 31.966C55.5113 32.9805 55.3422 33.9823 55.0041 34.9713C54.6659 35.9604 54.1164 36.8608 53.3556 37.6723C52.6032 38.4839 51.6057 39.1306 50.363 39.6124C49.1203 40.0943 47.5901 40.3352 45.7726 40.3352L44.5045 40.3352L44.5045 25.3214L47.0914 25.3214L47.0914 37.2919C48.1903 37.2919 49.171 37.0721 50.0333 36.6325C50.8955 36.2014 51.5761 35.5842 52.0748 34.7811C52.5736 33.9865 52.823 33.0481 52.823 31.966C52.823 30.7741 52.5271 29.7427 51.9354 28.872C51.352 28.0097 50.5912 27.3461 49.6528 26.8811C48.7145 26.4161 47.7085 26.1837 46.6349 26.1837L44.9103 26.1837C43.4393 26.1837 42.1924 26.4373 41.1695 26.9445C40.1551 27.4602 39.3815 28.1745 38.849 29.0875C38.3248 30.0005 38.0628 31.0615 38.0628 32.2704C38.0628 33.0566 38.1727 33.7667 38.3924 34.4007C38.6207 35.0432 38.9588 35.5969 39.4069 36.0619C39.8634 36.5268 40.4298 36.8861 41.1061 37.1397L40.2945 40.0309C39.3139 39.7266 38.4516 39.2151 37.7077 38.4965C36.9722 37.778 36.3974 36.8903 35.9831 35.8336C35.5774 34.7769 35.3745 33.5891 35.3745 32.2704Z" fill="#BAA7FF"/>
<path d="M47.4971 6.20857L35.7802 6.20857L35.7802 3.21594L55.2577 3.21594L55.2577 6.10712L52.2143 6.10712L52.2143 6.36074C53.2034 6.81724 53.9981 7.51045 54.5983 8.44036C55.207 9.37027 55.5113 10.5707 55.5113 12.0417C55.5113 13.3604 55.2408 14.5144 54.6997 15.5035C54.1671 16.4926 53.3556 17.2618 52.2651 17.8113C51.183 18.3608 49.8135 18.6356 48.1565 18.6356L35.7802 18.6356L35.7802 15.643L47.9536 15.643C49.4838 15.643 50.6757 15.2456 51.5296 14.451C52.3919 13.6563 52.823 12.5658 52.823 11.1794C52.823 10.2241 52.6159 9.37027 52.2016 8.61789C51.7874 7.87396 51.183 7.28642 50.3883 6.85528C49.5937 6.42414 48.6299 6.20857 47.4971 6.20857Z" fill="#BAA7FF"/>
<path fill-rule="evenodd" clip-rule="evenodd" d="M58.0474 56.148L49.9318 56.148L49.9318 51.9887L41.3597 51.9887C41.3067 51.9887 41.2573 51.9894 41.2112 51.9907C41.2123 52.017 41.2135 52.0407 41.2148 52.062C41.2168 52.0929 41.2187 52.1158 41.2203 52.1313L41.839 55.2248L34.1241 56.9716L33.2696 54.6928C33.1241 54.3048 33.0154 53.8736 32.9286 53.4624C32.7845 52.8265 32.7369 52.1469 32.7369 51.4815C32.7369 50.2228 33.0102 49.007 33.5259 47.8557L33.5282 47.8507L33.5304 47.8457C34.104 46.5785 34.9822 45.531 36.1091 44.7242L36.1177 44.7181L36.1263 44.712C37.4447 43.7832 38.9822 43.4166 40.5482 43.4166L49.9318 43.4166L49.9318 40.4747L58.0474 40.4747L58.0474 43.4166L62.7139 43.4166L62.7139 51.9887L58.0474 51.9887L58.0474 56.148ZM59.9242 49.199L59.9242 46.2064L55.2577 46.2064L55.2577 43.2645L52.7216 43.2645L52.7216 46.2064L40.5482 46.2064C39.4154 46.2064 38.477 46.4684 37.7331 46.9926C36.9892 47.5252 36.4354 48.193 36.0719 48.9961C35.7882 49.6296 35.6152 50.2733 35.5529 50.9274C35.5354 51.1113 35.5267 51.296 35.5267 51.4815C35.5267 51.7889 35.5395 52.0667 35.5651 52.3151C35.5861 52.5176 35.6155 52.7004 35.6535 52.8637C35.699 53.0815 35.7446 53.2704 35.7902 53.4306C35.8128 53.5098 35.8353 53.5819 35.8579 53.6471C35.8658 53.67 35.8738 53.6921 35.8817 53.7133L38.57 53.1046L38.4686 52.5974C38.4347 52.3861 38.4178 52.1155 38.4178 51.7858C38.4178 51.3463 38.4855 50.9278 38.6207 50.5305C38.7644 50.1416 39.0434 49.8203 39.4576 49.5667C39.8803 49.3216 40.5144 49.199 41.3597 49.199L52.7216 49.199L52.7216 53.3582L55.2577 53.3582L55.2577 49.199L59.9242 49.199Z" fill="black"/>
<path fill-rule="evenodd" clip-rule="evenodd" d="M36.4465 27.7083C35.7318 29.0065 35.3745 30.5272 35.3745 32.2703C35.3745 33.3715 35.5159 34.3813 35.7988 35.2998C35.8009 35.3065 35.803 35.3132 35.805 35.3199C35.8593 35.4944 35.9186 35.6656 35.9831 35.8336C36.0444 35.99 36.1093 36.1426 36.1776 36.2916C36.571 37.1493 37.0811 37.8843 37.7077 38.4965C37.7391 38.5268 37.7707 38.5567 37.8025 38.5863C38.5246 39.2578 39.3553 39.7394 40.2945 40.0308L41.1061 37.1397C40.4298 36.8861 39.8634 36.5268 39.4069 36.0618C39.1223 35.7664 38.882 35.4352 38.686 35.0682C38.6461 34.9935 38.6081 34.9172 38.5718 34.8395C38.5691 34.8337 38.5664 34.8278 38.5637 34.822C38.501 34.686 38.4439 34.5456 38.3924 34.4007C38.1726 33.7666 38.0627 33.0565 38.0627 32.2703C38.0627 31.0614 38.3248 30.0005 38.8489 29.0875C38.8909 29.0155 38.9344 28.9448 38.9794 28.8753C38.9831 28.8696 38.9868 28.8639 38.9904 28.8582C39.0796 28.7216 39.1746 28.5897 39.2755 28.4626C39.7679 27.842 40.3993 27.336 41.1695 26.9444C41.3447 26.8576 41.5264 26.7781 41.7148 26.7062C42.4711 26.417 43.3334 26.2479 44.3016 26.1987C44.3687 26.1953 44.4364 26.1925 44.5045 26.1902L44.5045 40.3352L45.7726 40.3352C46.3044 40.3352 46.8116 40.3146 47.2942 40.2733C48.461 40.1736 49.4839 39.9533 50.363 39.6124C51.6057 39.1305 52.6032 38.4838 53.3556 37.6723C53.5826 37.4301 53.7907 37.1801 53.9801 36.9222C54.1398 36.7046 54.2862 36.4814 54.4192 36.2525C54.4214 36.2487 54.4236 36.245 54.4258 36.2412C54.6606 35.8355 54.8533 35.4122 55.0041 34.9713C55.3422 33.9822 55.5113 32.9804 55.5113 31.966C55.5113 30.2076 55.0801 28.669 54.2179 27.3502C54.2145 27.345 54.2111 27.3399 54.2077 27.3347C54.2066 27.3331 54.2056 27.3314 54.2045 27.3298C53.397 26.0984 52.2894 25.122 50.8819 24.4006C50.8028 24.3601 50.7229 24.3204 50.6419 24.2815C50.3946 24.1633 50.141 24.0548 49.8811 23.9558C49.8115 23.9293 49.7415 23.9035 49.671 23.8784C48.8692 23.5925 48.0093 23.3958 47.0914 23.2883C46.5376 23.2234 45.9628 23.191 45.3668 23.191C45.0741 23.191 44.7867 23.1988 44.5045 23.2145C43.5089 23.2697 42.579 23.4223 41.7148 23.6724C41.1546 23.8345 40.622 24.0375 40.117 24.2815C38.8735 24.8927 37.8577 25.717 37.0696 26.7544C36.9094 26.9654 36.7586 27.1851 36.6172 27.4136C36.5615 27.5051 36.5077 27.5977 36.4558 27.6915C36.4527 27.6971 36.4496 27.7027 36.4465 27.7083ZM47.0914 26.1979L47.0914 37.2918C47.1594 37.2918 47.2271 37.291 47.2942 37.2893C48.2481 37.2653 49.1104 37.0713 49.8811 36.7072C49.9322 36.683 49.9829 36.6581 50.0333 36.6324C50.7224 36.2879 51.2955 35.8245 51.7525 35.2423C51.8673 35.096 51.9747 34.9423 52.0748 34.7811C52.2123 34.5621 52.3308 34.3322 52.4304 34.0914C52.6921 33.4583 52.823 32.7499 52.823 31.966C52.823 30.774 52.5271 29.7426 51.9354 28.8719C51.9308 28.8651 51.9262 28.8584 51.9216 28.8516C51.9208 28.8505 51.92 28.8493 51.9192 28.8481C51.3863 28.0681 50.7069 27.4521 49.8811 27C49.8062 26.959 49.7301 26.9193 49.6528 26.881C49.5845 26.8472 49.5158 26.8145 49.4467 26.7831C49.4447 26.7822 49.4428 26.7813 49.4408 26.7804C49.2181 26.6795 48.9916 26.5913 48.7615 26.5159C48.2882 26.361 47.7991 26.2602 47.2942 26.2136C47.2269 26.2074 47.1593 26.2022 47.0914 26.1979ZM49.8811 30.9463L49.8811 32.9513C49.9728 32.7012 50.0333 32.383 50.0333 31.966C50.0333 31.552 49.9759 31.2202 49.8811 30.9463ZM56.554 25.8254C57.7459 27.6492 58.301 29.7312 58.301 31.966C58.301 33.2968 58.0782 34.6031 57.6438 35.8738C57.1704 37.2585 56.407 38.4949 55.3958 39.5749C54.3036 40.7509 52.9267 41.6104 51.3715 42.2134C49.7135 42.8563 47.8178 43.1249 45.7726 43.1249L42.3236 43.1249L42.2057 43.545L39.4677 42.6952C38.0671 42.2606 36.825 41.5225 35.7695 40.503L35.7638 40.4975L35.7581 40.4919C34.7118 39.4697 33.9292 38.2379 33.3858 36.8517L33.3823 36.8427L33.3788 36.8336C32.832 35.4097 32.5847 33.8755 32.5847 32.2703C32.5847 29.974 33.0956 27.8337 34.2342 25.9631L34.2395 25.9544L34.2448 25.9457C35.3711 24.1255 36.9436 22.7328 38.8864 21.7779L38.8949 21.7737L38.9034 21.7696C40.853 20.8276 43.032 20.4012 45.3668 20.4012C47.7026 20.4012 49.8847 20.828 51.8446 21.7643L51.8505 21.7671C53.799 22.7038 55.398 24.0522 56.554 25.8254ZM41.7148 34.3527C41.5849 34.2756 41.4855 34.1953 41.4064 34.1163C41.2551 33.9567 41.1252 33.7554 41.0248 33.4768C40.9245 33.1833 40.8525 32.7916 40.8525 32.2703C40.8525 31.4807 41.0187 30.9148 41.2636 30.4848C41.3822 30.2831 41.5287 30.0955 41.7148 29.9224L41.7148 34.3527Z" fill="black"/>
<path fill-rule="evenodd" clip-rule="evenodd" d="M47.4971 6.20851C48.2058 6.20851 48.8483 6.29287 49.4246 6.4616C49.7695 6.56258 50.0908 6.69379 50.3883 6.85522C50.8455 7.10326 51.2397 7.40307 51.571 7.75463C51.8155 8.01416 52.0257 8.30189 52.2016 8.61783C52.2059 8.62555 52.2101 8.63327 52.2143 8.64101C52.26 8.72502 52.3031 8.81028 52.3436 8.8968C52.4646 9.15521 52.5627 9.42483 52.6379 9.70567C52.6392 9.71072 52.6406 9.71578 52.6419 9.72085C52.7626 10.1774 52.823 10.6636 52.823 11.1793C52.823 11.4807 52.8026 11.7682 52.7619 12.0416C52.7488 12.129 52.7337 12.2149 52.7166 12.2994C52.5402 13.167 52.1445 13.8842 51.5296 14.4509C50.6757 15.2456 49.4838 15.6429 47.9536 15.6429L35.7802 15.6429L35.7802 18.6355L48.1565 18.6355C49.8135 18.6355 51.183 18.3608 52.265 17.8113C53.3556 17.2618 54.1671 16.4925 54.6997 15.5034C55.1597 14.6626 55.4241 13.7026 55.4931 12.6235C55.5052 12.4332 55.5113 12.2393 55.5113 12.0416C55.5113 11.743 55.4987 11.4556 55.4737 11.1793C55.3945 10.3075 55.1905 9.54666 54.8617 8.8968C54.7814 8.73801 54.6935 8.58584 54.5983 8.4403C54.411 8.15014 54.2048 7.88302 53.9796 7.63895C53.9774 7.63649 53.9751 7.63405 53.9728 7.6316C53.4779 7.09695 52.8917 6.67331 52.2143 6.36068L52.2143 6.10707L55.2577 6.10707L55.2577 3.21588L35.7802 3.21588L35.7802 6.20851L47.4971 6.20851ZM57.859 8.8968L58.0474 8.8968L58.0474 0.426147L32.9905 0.426146L32.9905 8.99825L47.4971 8.99825C48.2807 8.99825 48.7624 9.14697 49.0579 9.30731C49.4146 9.50079 49.6207 9.71943 49.7611 9.96935C49.922 10.264 50.0333 10.6443 50.0333 11.1793C50.0333 11.9412 49.8234 12.2295 49.639 12.3995L49.634 12.4041L49.629 12.4088C49.436 12.5884 49.0046 12.8532 47.9536 12.8532L32.9905 12.8532L32.9905 21.4253L48.1565 21.4253C50.0985 21.4253 51.9352 21.1065 53.524 20.3008C55.074 19.519 56.3248 18.3656 57.1516 16.8342C57.9495 15.3719 58.301 13.7454 58.301 12.0416C58.301 10.9574 58.1691 9.89517 57.859 8.8968Z" fill="black"/>
</svg>
