<svg width="101" height="101" viewBox="0 0 101 101" fill="none" xmlns="http://www.w3.org/2000/svg">
<circle cx="50.1528" cy="50.5405" r="50" transform="rotate(-180 50.1528 50.5405)" fill="#E2DDFE"/>
<path d="M37.6528 50.5404C37.6528 43.6367 43.2491 38.0404 50.1528 38.0404C57.0562 38.0405 62.6527 43.6367 62.6527 50.5405C62.6526 57.4438 57.0561 63.0403 50.1528 63.0403C43.2491 63.0403 37.6528 57.4438 37.6528 50.5404Z" stroke="#2F265F" stroke-width="5" stroke-linecap="round" stroke-linejoin="round"/>
<path d="M68.3054 78.9197L68.6236 75.1013C68.79 73.1039 68.8733 72.1052 69.304 71.3252C69.6836 70.6376 70.2499 70.0713 70.9375 69.6916C71.7175 69.2609 72.7163 69.1777 74.7136 69.0113L78.5321 68.6931C82.8087 68.3366 84.947 68.1585 86.0011 67.1815C86.9184 66.3314 87.4053 65.1141 87.3273 63.8659C87.2378 62.4315 85.8123 60.8278 82.9612 57.6205L80.6048 54.9692C79.2118 53.4021 78.5153 52.6188 78.2508 51.7342C78.0177 50.9555 78.0177 50.1251 78.2508 49.3463C78.5153 48.4621 79.2118 47.6784 80.6048 46.1113L82.9612 43.4605C85.8123 40.253 87.2378 38.6492 87.3273 37.2146C87.4053 35.9663 86.9184 34.7492 86.0011 33.8992C84.947 32.9221 82.8087 32.7438 78.532 32.3876L74.7136 32.0692C72.7163 31.903 71.7176 31.8196 70.9375 31.3888C70.2499 31.0092 69.6836 30.443 69.304 29.7555C68.8733 28.9755 68.7901 27.9767 68.6236 25.9792L68.3054 22.1609C67.949 17.8842 67.7708 15.7459 66.7939 14.6917C65.9438 13.7746 64.7265 13.2875 63.4783 13.3655C62.0439 13.455 60.4401 14.8809 57.2328 17.7317L54.5816 20.0884C53.0145 21.4813 52.2312 22.1775 51.3466 22.4421C50.5678 22.6755 49.7374 22.6755 48.9587 22.4421C48.0745 22.1775 47.2908 21.4813 45.7237 20.0884L43.0728 17.7317C39.8653 14.8809 38.2616 13.455 36.827 13.3655C35.5787 13.2875 34.3616 13.7746 33.5116 14.6917C32.5345 15.7459 32.3562 17.8842 31.9999 22.1609L31.6816 25.9792C31.5153 27.9767 31.432 28.9755 31.0012 29.7555C30.6216 30.443 30.0553 31.0092 29.3678 31.3888C28.5878 31.8196 27.5891 31.903 25.5916 32.0692L21.7733 32.3875C17.4966 32.7438 15.3583 32.9221 14.3041 33.8992C13.387 34.7492 12.8999 35.9663 12.9778 37.2146C13.0674 38.6492 14.4933 40.253 17.3441 43.4605L19.7008 46.1113C21.0937 47.6784 21.7899 48.4621 22.0545 49.3463C22.2878 50.125 22.2878 50.9555 22.0545 51.7342C21.7899 52.6188 21.0937 53.4021 19.7008 54.9692L17.3441 57.6205C14.4933 60.8278 13.0674 62.4315 12.9778 63.8659C12.8999 65.1141 13.387 66.3314 14.3041 67.1815C15.3583 68.1585 17.4966 68.3366 21.7733 68.693L25.5916 69.0113C27.5891 69.1777 28.5878 69.2609 29.3678 69.6916C30.0553 70.0713 30.6216 70.6375 31.0012 71.3252C31.432 72.1052 31.5153 73.1039 31.6816 75.1013L31.9999 78.9197C32.3562 83.1963 32.5345 85.3346 33.5116 86.3887C34.3616 87.306 35.5787 87.7929 36.827 87.715C38.2616 87.6254 39.8653 86.1999 43.0728 83.3488L45.7237 80.9924C47.2908 79.5994 48.0745 78.9029 48.9587 78.6384C49.7374 78.4053 50.5678 78.4053 51.3466 78.6384C52.2312 78.9029 53.0145 79.5994 54.5816 80.9924L57.2328 83.3488C60.4401 86.1999 62.0439 87.6254 63.4783 87.715C64.7265 87.7929 65.9438 87.306 66.7939 86.3887C67.7708 85.3346 67.949 83.1963 68.3054 78.9197Z" stroke="#2F265F" stroke-width="5" stroke-linecap="round" stroke-linejoin="round"/>
</svg>
